<svg id="Layer_1" data-name="Layer 1" xmlns="http://www.w3.org/2000/svg" viewBox="0 0 266.26 409.88"><defs><style>.cls-1{fill:#fcb043;}</style></defs><title>icon-hand</title><path class="cls-1" d="M169,320.23l-9-8.85,10.24-10.05L172.42,264a6,6,0,0,1,.58-2.28l40.21-84.92c.76-1.43,6.51-11.71,16.53-12.32,6.44-.37,12.34,3.17,17.58,10.59,9.42,13.35,5.93,35.53,1.85,50.61l93.66-91.94a24.41,24.41,0,0,1,16.76-7,23.6,23.6,0,0,1,16.79,6.62,22.34,22.34,0,0,1,6.75,16.48A23.52,23.52,0,0,1,376,166.29l-9-8.84a11.2,11.2,0,0,0,3.43-7.81,10.13,10.13,0,0,0-3-7.44,10.76,10.76,0,0,0-7.57-2.95,11.56,11.56,0,0,0-7.95,3.35L250.48,242.1a6.42,6.42,0,0,1-3.41,1.74l-7.87,1.35a6.42,6.42,0,0,1-6-2.2,6.18,6.18,0,0,1-1-6.25c4.35-10.85,13.66-41.81,4.67-54.53-2.8-4-5.1-5.35-6.31-5.23-2.09.13-4.91,3.51-5.9,5.37l-39.56,83.58-2.23,38.49a6.12,6.12,0,0,1-1.85,4.07Z" transform="translate(-116.87 -41.67)"/><polygon class="cls-1" points="173.33 208.81 164.32 199.96 250.09 115.77 259.1 124.62 173.33 208.81"/><path class="cls-1" d="M291.19,249.51l-9-8.85,26.93-26.43c9.36-9.19,24.41-9.37,33.55-.4a23,23,0,0,1-.41,32.93l-9-8.84c4.39-4.32,4.58-11.16.41-15.25s-11.13-3.91-15.53.4Z" transform="translate(-116.87 -41.67)"/><polygon class="cls-1" points="195.33 234.58 186.32 225.74 216.37 196.24 225.38 205.09 195.33 234.58"/><path class="cls-1" d="M355.52,281.11l-9-8.84a10.66,10.66,0,0,0,.41-15.25c-4.16-4.09-11.13-3.91-15.52.41l-9-8.85c9.35-9.19,24.41-9.38,33.55-.4S364.88,271.92,355.52,281.11Z" transform="translate(-116.87 -41.67)"/><polygon class="cls-1" points="214.05 263.57 205.04 254.73 229.63 230.59 238.65 239.44 214.05 263.57"/><path class="cls-1" d="M369.25,315l-9-8.84a11.24,11.24,0,0,0,3.42-7.82,10.06,10.06,0,0,0-3-7.43c-4.17-4.09-11.14-3.91-15.53.4l-9-8.84c9.36-9.19,24.41-9.37,33.55-.4a22.33,22.33,0,0,1,6.74,16.48A23.59,23.59,0,0,1,369.25,315Z" transform="translate(-116.87 -41.67)"/><path class="cls-1" d="M254.81,407.59l-9-8.85,11.09-10.88a6.36,6.36,0,0,1,2.58-1.54l28-8.72,72.79-71.44,9,8.84-73.89,72.52a6.29,6.29,0,0,1-2.58,1.54l-28,8.72Z" transform="translate(-116.87 -41.67)"/><path class="cls-1" d="M243.43,451.55l-9-8.84L259.61,418,151.07,311.44l-25.19,24.73-9-8.85,29.7-29.15a6.66,6.66,0,0,1,9,0L273.13,413.56a6.16,6.16,0,0,1,0,8.84Z" transform="translate(-116.87 -41.67)"/><polygon class="cls-1" points="113.77 383.22 85 354.98 94.01 346.14 122.78 374.38 113.77 383.22"/><path class="cls-1" d="M196,388.32a6.68,6.68,0,0,1-2.46-.47,6.58,6.58,0,0,1-2.07-1.38,6.16,6.16,0,0,1-1.84-4.41,5.67,5.67,0,0,1,.12-1.22,6.15,6.15,0,0,1,.35-1.19,5.17,5.17,0,0,1,.61-1.06,7.71,7.71,0,0,1,.76-1,7.81,7.81,0,0,1,1-.75,5.42,5.42,0,0,1,1.08-.59,6.33,6.33,0,0,1,1.21-.35,6.53,6.53,0,0,1,5.74,1.69,5.42,5.42,0,0,1,.79,1,7.07,7.07,0,0,1,.61,1.06,9.38,9.38,0,0,1,.35,1.19,5.12,5.12,0,0,1,.13,1.22,6.21,6.21,0,0,1-.48,2.41,5.94,5.94,0,0,1-1.4,2,4.76,4.76,0,0,1-1,.78,5.47,5.47,0,0,1-1.08.6,8,8,0,0,1-1.21.34A8.85,8.85,0,0,1,196,388.32Z" transform="translate(-116.87 -41.67)"/><polygon class="cls-1" points="133.08 56.71 125.13 1.76 137.75 0 145.69 54.95 133.08 56.71"/><polygon class="cls-1" points="179.44 81.25 169.25 73.74 203.22 29.37 213.4 36.88 179.44 81.25"/><polygon class="cls-1" points="108.12 91.19 62.91 57.84 70.57 47.84 115.78 81.19 108.12 91.19"/></svg>