<svg id="Layer_1" data-name="Layer 1" xmlns="http://www.w3.org/2000/svg" viewBox="0 0 388.79 388.79"><defs><style>.cls-1{fill:#fcb043;}</style></defs><title>icon-check</title><path class="cls-1" d="M69.53,245.72H55.48c0-107.19,87.21-194.4,194.4-194.4A194.42,194.42,0,0,1,420.81,153.05l-12.35,6.71A180.37,180.37,0,0,0,249.88,65.37C150.44,65.37,69.53,146.27,69.53,245.72Z" transform="translate(-55.48 -51.32)"/><path class="cls-1" d="M249.88,440.11A194.28,194.28,0,0,1,152.46,414l7-12.16a180.22,180.22,0,0,0,90.37,24.24c99.44,0,180.34-80.9,180.34-180.34h14C444.27,352.91,357.07,440.11,249.88,440.11Z" transform="translate(-55.48 -51.32)"/><path class="cls-1" d="M352.31,339.33l-10.37-9.48a124.73,124.73,0,0,0,9.48-156.52L245.3,279.44a7,7,0,0,1-9.94,0l-44.05-44.06,9.93-9.93,39.09,39.08L347,157.89a7,7,0,0,1,10.81.61,138.78,138.78,0,0,1-5.48,180.83Z" transform="translate(-55.48 -51.32)"/><path class="cls-1" d="M249.88,384.49c-76.52,0-138.76-62.25-138.76-138.76S173.36,107,249.88,107v14a124.71,124.71,0,1,0,41.59,242.31l4.68,13.25A138.29,138.29,0,0,1,249.88,384.49Z" transform="translate(-55.48 -51.32)"/><path class="cls-1" d="M249.88,331.79a86.06,86.06,0,1,1,50.53-155.73l-8.26,11.37a71.82,71.82,0,1,0,25.08,32.77l13.14-5a86.1,86.1,0,0,1-80.49,116.57Z" transform="translate(-55.48 -51.32)"/></svg>