<svg id="Layer_1" data-name="Layer 1" xmlns="http://www.w3.org/2000/svg" viewBox="0 0 370 410.95"><defs><style>.cls-1{fill:#fcb043;}</style></defs><title>icon-time</title><path class="cls-1" d="M334.89,76.06H280.36A6.35,6.35,0,0,1,274,69.71V48.35A6.35,6.35,0,0,1,280.36,42h54.53a6.36,6.36,0,0,1,6.36,6.36V69.71A6.35,6.35,0,0,1,334.89,76.06ZM286.72,63.35h41.82V54.7H286.72Z" transform="translate(-64.59 -41.99)"/><path class="cls-1" d="M307.64,348.85a126.92,126.92,0,0,1-105.27-56l10.53-7.12a114.25,114.25,0,0,0,209-63.87c0-58.66-45.72-108.63-104.1-113.76a6.35,6.35,0,0,1-5.8-6.33V80.61h12.71V96.12c63.06,8.38,109.9,61.47,109.9,125.78A127.09,127.09,0,0,1,307.64,348.85Z" transform="translate(-64.59 -41.99)"/><path class="cls-1" d="M203.71,174.41l-11.56-5.29a127.23,127.23,0,0,1,98.46-73V80.61h12.71v21.2a6.35,6.35,0,0,1-5.8,6.33A114.41,114.41,0,0,0,203.71,174.41Z" transform="translate(-64.59 -41.99)"/><rect class="cls-1" x="382.18" y="115.61" width="21.59" height="12.71" transform="translate(-18.79 300.82) rotate(-49.7)"/><rect class="cls-1" x="393.6" y="98.85" width="12.71" height="29.77" transform="translate(-10.02 303.27) rotate(-49.71)"/><path class="cls-1" d="M307.63,323.59V310.88a89.09,89.09,0,0,0,89-89h12.71A101.81,101.81,0,0,1,307.63,323.59Z" transform="translate(-64.59 -41.99)"/><rect class="cls-1" x="302.83" y="173.51" width="62.02" height="12.71" transform="translate(-60.04 325.95) rotate(-58.05)"/><rect class="cls-1" x="278.24" y="242.1" width="25.62" height="12.71" transform="translate(-138.39 321.91) rotate(-58.04)"/><path class="cls-1" d="M307.63,246.77a24.89,24.89,0,1,1,24.89-24.89A24.92,24.92,0,0,1,307.63,246.77Zm0-37.06a12.18,12.18,0,1,0,12.18,12.17A12.19,12.19,0,0,0,307.63,209.71Z" transform="translate(-64.59 -41.99)"/><path class="cls-1" d="M213.33,354.38l-12.5-2.29c12.3-67.33-14.76-107.34-15-107.73a6.36,6.36,0,0,1-.11-7.11c9.43-14.42,8.82-74,1.56-80.43a16.56,16.56,0,0,0-15.53-1.67,11.51,11.51,0,0,0-7.2,9.26c-1.22,8-5,19.23-9.39,32.28-4.83,14.39-10.31,30.7-12.89,44.58A280.25,280.25,0,0,0,138,291.88a6.35,6.35,0,0,1-1.61,4.39l-24.61,27.55-9.48-8.46,23-25.72a290.17,290.17,0,0,1,4.46-50.7c2.75-14.75,8.38-31.51,13.34-46.3,4-12,7.82-23.28,8.88-30.16a24.25,24.25,0,0,1,14.86-19.06,29.29,29.29,0,0,1,27.91,3.13c14.87,10.74,12.89,72.34,3.58,93.86C205.05,251.91,224.71,292.11,213.33,354.38Z" transform="translate(-64.59 -41.99)"/><path class="cls-1" d="M200.94,414.11l-9.15-8.82,23.81-24.72,3.37.63c.23,0,24.64,4.37,45.44-6,21.68-10.83,32.76-18.79,37.1-34.72l12.27,3.34c-5.56,20.36-19.64,30.73-43.68,42.75-19.88,9.94-41.63,8.67-50,7.67Z" transform="translate(-64.59 -41.99)"/><path class="cls-1" d="M186.19,452.94l-9-9,22.61-22.6L96.18,317.71,73.57,340.32l-9-9,27.1-27.1a6.36,6.36,0,0,1,9,0L213.3,416.85a6.36,6.36,0,0,1,0,9Z" transform="translate(-64.59 -41.99)"/><rect class="cls-1" x="157.81" y="391.94" width="12.71" height="32.89" transform="translate(-305.28 193.7) rotate(-45)"/></svg>